<?xml version="1.0" encoding="UTF-8"?>
<svg id="Layer_2" data-name="Layer 2" xmlns="http://www.w3.org/2000/svg" viewBox="0 0 273.15 98.06">
  <defs>
    <style>
      .cls-1 {
        fill: #fff;
      }
    </style>
  </defs>
  <g id="Layer_1-2" data-name="Layer 1">
    <g>
      <path class="cls-1" d="M117.23,36.21c-.87-1.72-3.42-1.36-3.79.53l-3.08,15.98c-.26,1.36.9,2.58,2.27,2.38l10.4-1.51c1.37-.2,2.14-1.68,1.51-2.91l-7.32-14.47Z"/>
      <path class="cls-1" d="M83.06,30.21l-9.85-.12c-1.12-.01-2.03.88-2.04,2l-.17,13.76c-.01,1.12.88,2.03,2,2.04l9.85.12c5.75.07,9.45-3.45,9.51-8.74.06-5.29-3.54-8.99-9.29-9.06Z"/>
      <path class="cls-1" d="M165.3,33.15h-9.94c-1.12,0-2.02.9-2.02,2.02v13.12c0,1.12.9,2.02,2.02,2.02h9.94c5.57,0,9.23-3.56,9.23-8.58s-3.66-8.58-9.23-8.58Z"/>
      <path class="cls-1" d="M271.79,58.73c.38-.7.69-1.45.92-2.22.85-2.93.47-6.12-1.05-8.76l-2.55-4.43c-1.96-3.41-5.58-5.55-9.5-5.64-.43-.7-.93-1.36-1.51-1.95-2.11-2.18-5.06-3.43-8.09-3.43h-5.11c-3.05,0-6.01,1.26-8.12,3.46-.57.59-1.06,1.23-1.48,1.92-2.82.07-5.49,1.2-7.49,3.1l-3-3.44,10.89-19.43c2.08-3.71,2.03-8.29-.11-11.95-2.15-3.67-6.12-5.95-10.36-5.95-.74,0-1.49.07-2.22.21l-9.99,1.86c-3.58.67-6.63,2.89-8.36,6.09l-3.54,6.53c-1.65-4.77-6.18-8.08-11.35-8.08-.74,0-1.48.07-2.21.2l-8.51,1.59c-2.77.52-5.14,1.95-6.85,3.93-1.97-.33-4-.5-6.09-.5h-23.45c-4.81,0-8.97,2.84-10.89,6.93l-5.91-10.97c-2.1-3.89-6.15-6.31-10.58-6.31-.58,0-1.16.04-1.73.12l-7.05,1.03c-4.75.69-8.64,4.18-9.88,8.77-3.85-1.58-8.13-2.44-12.68-2.49l-23.32-.28c-3.88,0-7.35,1.87-9.55,4.75-4.43-1.87-8.91-2.78-13.7-2.78-4.17,0-8.54.7-13.34,2.14-8.91,2.67-15.81,7.65-19.95,14.39C-.15,34.04-1.13,42.37,1.33,50.59c2.34,7.8,6.71,13.46,12.98,16.83l.13.07c.85.44,1.74.84,2.65,1.18-.76.79-1.42,1.68-1.96,2.67l-3.62,6.72c-1.57,2.91-1.87,6.38-.82,9.53,1.05,3.13,3.37,5.72,6.37,7.1,4.93,2.27,9.98,3.37,15.41,3.37,4.56,0,9.44-.8,14.93-2.45,2.7-.81,5.24-1.83,7.6-3.04,1.45.65,3.06,1.02,4.74,1.04l8.79.11c6.55,0,11.94-5.33,12.02-11.88l.15-12.44,2.98.03c.29,0,.59,0,.88,0l-1.28,6.17c-.74,3.56.16,7.21,2.45,10.03,2.29,2.82,5.69,4.43,9.32,4.43.58,0,1.16-.04,1.74-.13l8.83-1.28c5.04-.74,9.08-4.59,10.06-9.59l1.11-5.7,6.97-1.39,2.82,5.46c.97,1.87,2.38,3.42,4.06,4.53v2.86c0,6.63,5.39,12.02,12.02,12.02h8.65c6.43,0,11.7-5.08,12.01-11.44l2.3,4.71c2,4.09,6.24,6.73,10.79,6.73h10.11c4,0,7.65-1.93,9.9-5.2l6.73-1.25c3.16-.59,5.9-2.37,7.71-5.02,1.81-2.65,2.49-5.84,1.9-9l-.81-4.32,7.61,9.06c2.29,2.73,5.64,4.29,9.2,4.29.74,0,1.48-.07,2.2-.2l8.26-1.54c1.7.99,3.66,1.52,5.65,1.52h5.11c3.03,0,5.98-1.25,8.09-3.43.6-.62,1.12-1.3,1.55-2.02,3.88-.11,7.47-2.23,9.42-5.59l2.54-4.36c1.54-2.64,1.94-5.85,1.09-8.79-.23-.78-.54-1.53-.92-2.24ZM254.68,58.91l7.79,4.07c.64.33.87,1.13.5,1.75l-2.54,4.36c-.36.61-1.15.81-1.76.43l-7.38-4.64c-.14-.09-.32.02-.31.18l.28,8.8c.02.71-.55,1.3-1.26,1.3h-5.11c-.71,0-1.29-.59-1.26-1.31l.35-8.79c0-.16-.17-.27-.31-.18l-5.25,3.27,1.78,2.04c1.03,1.18.38,3.03-1.15,3.31l-9.9,1.85c-.72.13-1.45-.13-1.92-.69l-14.77-17.58h0l-4.45-5.29c-.91-1.08-2.62-.92-3.31.31l-4.63,8.23c-.23.41-.31.89-.22,1.36l3.08,16.5c.2,1.1-.52,2.15-1.62,2.36l-8.5,1.59c-1.1.2-2.15-.52-2.36-1.62l-3.09-16.55h0s-2.44-13.1-2.44-13.1c-1.84,3.27-4.63,5.65-7.73,7.15-1,.49-1.38,1.73-.87,2.72l4.29,8.28,7.7,14.86c.7,1.34-.28,2.95-1.79,2.95h-10.11c-.77,0-1.48-.44-1.81-1.13l-7.8-15.94-3.78-7.72c-.34-.69-1.04-1.13-1.81-1.13h-5.85c-1.12,0-2.02.9-2.02,2.02v13.5h0v8.39c0,1.12-.9,2.02-2.02,2.02h-8.65c-1.12,0-2.02-.9-2.02-2.02v-8.41h0v-2.95l-3.09.45c-.85.12-1.69-.31-2.09-1.07l-5.58-10.8c-.41-.8-1.31-1.23-2.19-1.05l-18.11,3.62c-.8.16-1.43.79-1.59,1.59l-2.14,10.95c-.16.84-.84,1.49-1.69,1.61l-8.83,1.28c-1.39.2-2.55-1.04-2.27-2.41l2.2-10.61h0s2.53-12.19,2.53-12.19c-3.64,2.93-8.54,4.68-14.48,4.61l-10.49-.13c-1.12-.01-2.03.88-2.04,2l-.22,18.21h0l-.03,2.22c-.01,1.12-.93,2.01-2.04,2l-8.65-.11c-1.12-.01-2.01-.93-2-2.04l.02-1.54v-.96s.02-.96.02-.96c-3.22,3.53-7.85,6.27-13.39,7.93-8.68,2.61-15.96,2.93-23.28-.43-1.06-.49-1.48-1.77-.93-2.8l3.62-6.72c.49-.92,1.6-1.29,2.56-.9,4.68,1.9,9.8,1.5,14.95-.05,7.17-2.15,10.2-6.02,8.7-11-.66-2.19-1.81-3.84-3.5-4.67-1.56-.77-3.14-.96-6.16-.53l-7.84,1.21c-5.57.81-10,.33-13.61-1.54-3.87-2.08-6.56-5.66-8.14-10.9-3.33-11.11,2.55-21.36,16.02-25.4,7.74-2.32,14.07-2.36,20.3.28,1.09.46,1.53,1.78.96,2.82l-3.5,6.41c-.49.9-1.57,1.26-2.53.91-4.47-1.66-8.75-.83-12.41.27-6.47,1.94-8.54,6.47-7.26,10.76.47,1.57,1.5,3.08,3.18,3.91,1.57.77,3.86,1.13,6.5.71l7.66-1.16c5.92-.92,9.98-.42,13.33,1.24,1.99,1,3.66,2.44,5.06,4.24l.39-32.09c.01-1.12.93-2.01,2.04-2l23.18.28c9.31.11,15.97,4.64,19.13,11.09l3.3-15.89c.17-.83.85-1.47,1.69-1.59l7.05-1.02c.84-.12,1.67.29,2.07,1.04l23.58,43.74V23.85c0-1.12.9-2.02,2.02-2.02h23.45c5.92,0,10.75,1.81,14.29,4.78l-1.12-6.02c-.2-1.1.52-2.15,1.62-2.36l8.5-1.59c1.1-.2,2.15.52,2.36,1.62l3.77,20.22c.35,1.87,2.86,2.27,3.76.59l14.16-26.16c.29-.54.81-.91,1.41-1.02l9.98-1.86c1.68-.31,2.97,1.48,2.13,2.97l-13.64,24.34c-.42.74-.32,1.67.24,2.32l12.35,14.16,7.54,8.64,6.75-3.56c.15-.08.15-.29,0-.36l-7.74-4.08c-.63-.33-.86-1.11-.51-1.73l2.49-4.43c.35-.63,1.16-.83,1.77-.45l7.44,4.7c.14.09.32-.02.31-.18l-.35-8.78c-.03-.71.54-1.31,1.26-1.31h5.11c.71,0,1.28.59,1.26,1.3l-.28,8.79c0,.16.18.27.32.18l7.37-4.7c.6-.39,1.41-.19,1.77.43l2.55,4.43c.36.62.13,1.41-.51,1.74l-7.8,4.08c-.15.08-.15.29,0,.36Z"/>
    </g>
  </g>
</svg>